<svg xmlns="http://www.w3.org/2000/svg" id="Layer_1" data-name="Layer 1" viewBox="0 0 138.23 32.68"><defs><style>.cls-1,.cls-2{fill:#7ec621;}.cls-1,.cls-3{fill-rule:evenodd;}.cls-3{fill:#414042;}</style></defs><path class="cls-1" d="M48.46,65.16c-.07,0-.1,0-.1.1v8l-6-8.05a.1.1,0,0,0-.08,0h-.52a.09.09,0,0,0-.1.1v11a.09.09,0,0,0,.1.1h1.16c.07,0,.11,0,.11-.1V68.37l6,8a.08.08,0,0,0,.08,0h.55c.07,0,.11,0,.11-.1v-11c0-.07,0-.1-.11-.1Z" transform="translate(-35.44 -49.55)"></path><path class="cls-1" d="M56.16,65.15h0a.1.1,0,0,0-.09.06L51.48,76.27a.08.08,0,0,0,0,.09.09.09,0,0,0,.09,0h1.26a.09.09,0,0,0,.09-.06L54.72,72h4l1.8,4.34a.08.08,0,0,0,.09.06h1.26a.08.08,0,0,0,.08,0,.06.06,0,0,0,0-.09L57.35,65.21a.1.1,0,0,0-.09-.06Zm-.87,5.5,1.42-3.42,1.42,3.42Z" transform="translate(-35.44 -49.55)"></path><path class="cls-1" d="M71,74.35c0-.06-.08-.07-.14,0a4.1,4.1,0,0,1-2.27.66,4.22,4.22,0,0,1-4.19-4.24,4.2,4.2,0,0,1,3.86-4.13,4,4,0,0,1,2.59.65.1.1,0,0,0,.14,0l.7-1a.1.1,0,0,0,0-.14,5.61,5.61,0,0,0-7.08.79A5.46,5.46,0,0,0,63,70.47a5.67,5.67,0,0,0,3.36,5.47,5.64,5.64,0,0,0,2.25.47,5.45,5.45,0,0,0,3.07-.91.09.09,0,0,0,0-.14Z" transform="translate(-35.44 -49.55)"></path><path class="cls-1" d="M80.29,65.17a.09.09,0,0,0-.1.1v4.78H74.94V65.26a.1.1,0,0,0-.1-.11H73.6a.1.1,0,0,0-.1.11v11a.1.1,0,0,0,.1.11h1.24a.1.1,0,0,0,.1-.11v-4.8h5.25v4.82a.09.09,0,0,0,.1.1h1.24a.09.09,0,0,0,.1-.1v-11a.09.09,0,0,0-.1-.1Z" transform="translate(-35.44 -49.55)"></path><path class="cls-1" d="M91.39,65.17c-.07,0-.11,0-.11.1v4.78H86V65.26c0-.07,0-.11-.1-.11H84.7a.1.1,0,0,0-.11.11v11a.1.1,0,0,0,.11.11h1.23c.07,0,.1,0,.1-.11v-4.8h5.25v4.82c0,.07,0,.1.11.1h1.23c.07,0,.1,0,.1-.1v-11c0-.07,0-.1-.1-.1Z" transform="translate(-35.44 -49.55)"></path><rect class="cls-2" x="60.25" y="15.62" width="1.44" height="11.24" rx="0.1"></rect><path class="cls-1" d="M101.53,75V65.26a.09.09,0,0,0-.1-.1h-1.24a.09.09,0,0,0-.1.1v11a.09.09,0,0,0,.1.1h6.26a.09.09,0,0,0,.1-.1V75.08a.09.09,0,0,0-.1-.1Z" transform="translate(-35.44 -49.55)"></path><path class="cls-1" d="M115.39,66.59c.07,0,.1,0,.1-.1V65.26c0-.07,0-.11-.1-.11h-6.82a.1.1,0,0,0-.11.11v11c0,.07,0,.1.11.1h1.23c.07,0,.1,0,.1-.1V71.49h4.26a.09.09,0,0,0,.1-.1V70.15a.09.09,0,0,0-.1-.1H109.9V66.59Z" transform="translate(-35.44 -49.55)"></path><path class="cls-1" d="M117.18,65.17c-.07,0-.1,0-.1.1v11c0,.07,0,.1.1.1h7.3c.07,0,.1,0,.1-.1V75.09c0-.07,0-.11-.1-.11h-6V71.51h4.33c.07,0,.1,0,.1-.11V70.18c0-.07,0-.1-.1-.1H118.5V66.6h6a.09.09,0,0,0,.1-.1V65.27c0-.07,0-.1-.1-.1Z" transform="translate(-35.44 -49.55)"></path><path class="cls-1" d="M138.65,76.34a5.52,5.52,0,0,1-.63.11,6.29,6.29,0,0,1-.86,0,4.1,4.1,0,0,1-.74-.06,1.32,1.32,0,0,1-.54-.23,1,1,0,0,1-.33-.46,2.29,2.29,0,0,1-.11-.77V72.13h-3.52v4.21a4.79,4.79,0,0,1-.63.11,6.15,6.15,0,0,1-.85,0,4,4,0,0,1-.74-.06,1.21,1.21,0,0,1-.54-.23.93.93,0,0,1-.33-.46,2.06,2.06,0,0,1-.11-.77V65.31l.64-.1a6.2,6.2,0,0,1,.84-.07,4,4,0,0,1,.74.07,1.21,1.21,0,0,1,.54.23.93.93,0,0,1,.33.46,2.06,2.06,0,0,1,.11.77V69.6h3.52V65.31l.64-.1a6.48,6.48,0,0,1,.85-.07,4,4,0,0,1,.74.07,1.32,1.32,0,0,1,.54.23,1.07,1.07,0,0,1,.33.46,2.29,2.29,0,0,1,.11.77Z" transform="translate(-35.44 -49.55)"></path><path class="cls-1" d="M144,69.51h0a1.81,1.81,0,0,0-.76.14,1.46,1.46,0,0,0-.52.38,1.32,1.32,0,0,0-.3.51,1.94,1.94,0,0,0-.12.58l3.13-.51a1.43,1.43,0,0,0-.4-.74,1.37,1.37,0,0,0-1-.36m.51,7.2a6.12,6.12,0,0,1-2-.31,4.45,4.45,0,0,1-1.61-.9A4.21,4.21,0,0,1,139.77,74a5.32,5.32,0,0,1-.4-2.15,4.92,4.92,0,0,1,.4-2.08,4.11,4.11,0,0,1,1-1.43,4.25,4.25,0,0,1,1.47-.82,5.37,5.37,0,0,1,1.68-.27,5,5,0,0,1,1.77.3,4.12,4.12,0,0,1,1.37.8,3.53,3.53,0,0,1,.9,1.23,3.85,3.85,0,0,1,.32,1.56,1.22,1.22,0,0,1-.35.95,1.71,1.71,0,0,1-1,.42l-4.52.68a1.55,1.55,0,0,0,.82.91,3.27,3.27,0,0,0,1.43.3,5,5,0,0,0,1.42-.19,4.53,4.53,0,0,0,1.09-.45,1.53,1.53,0,0,1,.5.51,1.35,1.35,0,0,1,.2.7,1.29,1.29,0,0,1-.77,1.22,4.18,4.18,0,0,1-1.32.43A9.83,9.83,0,0,1,144.46,76.71Z" transform="translate(-35.44 -49.55)"></path><path class="cls-1" d="M148.82,68.42a4.08,4.08,0,0,1,.34-1.73,3.56,3.56,0,0,1,1-1.23,4.19,4.19,0,0,1,1.46-.74,6.55,6.55,0,0,1,1.81-.23,6.08,6.08,0,0,1,1.85.26,4.28,4.28,0,0,1,1.45.77A3.61,3.61,0,0,1,158,68.39a1.88,1.88,0,0,1-.13.76.92.92,0,0,1-.51.45l-.8.33c-.35.13-.52.34-.52.62a.48.48,0,0,0,.14.34,1.06,1.06,0,0,0,.36.23,6.33,6.33,0,0,1,.9.47,3.22,3.22,0,0,1,.67.59,2.39,2.39,0,0,1,.43.74,2.56,2.56,0,0,1,.16,1,2.7,2.7,0,0,1-.28,1.27,2.55,2.55,0,0,1-.77.89,3.77,3.77,0,0,1-1.11.52,4.66,4.66,0,0,1-1.29.17,3.83,3.83,0,0,1-1.76-.34,1.12,1.12,0,0,1-.67-1,1.41,1.41,0,0,1,.17-.71,1.54,1.54,0,0,1,.43-.48,2.45,2.45,0,0,0,1.25.33,1.21,1.21,0,0,0,.6-.14.43.43,0,0,0,.24-.39.54.54,0,0,0-.18-.42,3.43,3.43,0,0,0-.55-.37,4.68,4.68,0,0,1-1.44-1.1,2.35,2.35,0,0,1-.49-1.54,1.86,1.86,0,0,1,.55-1.35,3.66,3.66,0,0,1,1.49-.86,1.38,1.38,0,0,0-.45-1,1.53,1.53,0,0,0-1-.34,1.49,1.49,0,0,0-1.08.41,1.57,1.57,0,0,0-.42,1.19v7.78a3,3,0,0,1-.58.11,5.32,5.32,0,0,1-.81.06,4.07,4.07,0,0,1-.73-.06,1.19,1.19,0,0,1-.54-.22,1.16,1.16,0,0,1-.34-.44,2.2,2.2,0,0,1-.11-.75Z" transform="translate(-35.44 -49.55)"></path><path class="cls-1" d="M163.37,69.51h0a1.78,1.78,0,0,0-.76.14,1.46,1.46,0,0,0-.52.38,1.32,1.32,0,0,0-.3.51,1.94,1.94,0,0,0-.12.58l3.13-.51a1.43,1.43,0,0,0-.4-.74,1.37,1.37,0,0,0-1-.36m.51,7.2a6.12,6.12,0,0,1-2-.31,4.45,4.45,0,0,1-1.61-.9A4.21,4.21,0,0,1,159.19,74a5.32,5.32,0,0,1-.4-2.15,4.92,4.92,0,0,1,.4-2.08c1.35-3,8.41-2.06,8.41,1.72v.23h0a1.05,1.05,0,0,1-.25.37,1.71,1.71,0,0,1-1,.42l-4.52.68a1.55,1.55,0,0,0,.82.91,3.27,3.27,0,0,0,1.43.3,5,5,0,0,0,1.42-.19,4.53,4.53,0,0,0,1.09-.45,1.53,1.53,0,0,1,.5.51,1.35,1.35,0,0,1,.2.7,1.29,1.29,0,0,1-.77,1.22,4.18,4.18,0,0,1-1.32.43A9.83,9.83,0,0,1,163.88,76.71Z" transform="translate(-35.44 -49.55)"></path><path class="cls-1" d="M41.74,63h.13L44,59.13l-6.52,4.23h3.64a.66.66,0,0,1,.59-.4m-4.9,8.19h0a1.21,1.21,0,0,1,.38.06l4-7.16a.44.44,0,0,1-.08-.11H37.45a.88.88,0,0,1-.62.5ZM70,56.46h0a1.28,1.28,0,0,1-.15-.25l-12.08-.28a1.37,1.37,0,0,1-.84,1L58.83,63a.73.73,0,0,1,.49.23ZM66,51.4h0a1,1,0,0,1-.64.26,1.09,1.09,0,0,1-.75-.26l-6.89,3.72a2,2,0,0,1,.07.23l12,.28a1,1,0,0,1,.27-.52ZM50,62.78h0a.67.67,0,0,1,.23-.1l.12-11a.31.31,0,0,1-.1-.05L45.43,58a.91.91,0,0,1,.23.55v.08Zm-.41.6h0a.83.83,0,0,1,0-.15l-4.21-4a.87.87,0,0,1-.58.26.7.7,0,0,1-.29,0l-2.19,3.88,0,.07Zm1.65-.23h0a1,1,0,0,1,.07.25l6.84.17a.62.62,0,0,1,.15-.35L56.39,57a1.37,1.37,0,0,1-.63-.19Zm-.43-.42h0l4.53-6.33a1.37,1.37,0,0,1,1.07-2.15,1.35,1.35,0,0,1,1,.39l6.9-3.73v0L51.59,51a.91.91,0,0,1-.67.79ZM66.35,50.9l4.29,3.92.13,0a1,1,0,0,1,1.06,1,1,1,0,0,1-1,1,.86.86,0,0,1-.28,0l-11.11,7a.68.68,0,0,1-1.13.37L51.19,64a.9.9,0,0,1-.71.42.84.84,0,0,1-.42-.09l-.36.24h-1l.88-.59-7.18,0a.68.68,0,0,1-.56.35h0l-4.06,7.2a2.09,2.09,0,0,1,.2.22l3-2a5,5,0,0,0-.12.76l-2.65,1.76a1.5,1.5,0,0,1,0,.22,1.36,1.36,0,0,1-1.3,1.43,1.37,1.37,0,0,1-.62-2.63v-6.9a.84.84,0,0,1-.47-.73.87.87,0,0,1,.83-.91.85.85,0,0,1,.56.17l6.74-4.37a.88.88,0,0,1,.83-.82h.16l5-6.48a.89.89,0,0,1-.08-.32.92.92,0,0,1,.87-1,.94.94,0,0,1,.81.42l12.88-.08a1.05,1.05,0,0,1,2.06.27A.94.94,0,0,1,66.35,50.9Z" transform="translate(-35.44 -49.55)"></path><path class="cls-3" d="M168,71.26c.65,0,.93-.19,1-.64s.05-1.23.07-1.84l2.71.39c0,.48,0,1.12-.05,1.61,0,1-.48,3.31-.56,4.38a1.49,1.49,0,0,0,1.54,0c0-.44-.12-1-.18-1.42s-.12-.95-.19-1.43a11.7,11.7,0,0,1-.13-3.07l1.55.22c-.06-.12-.23-.27-.37-.46l-.58-.66a.88.88,0,0,0-.18-.21c-.16-.15-.19-.27-.38-.42a10.81,10.81,0,0,0,0-1.14.5.5,0,0,0-.34,0,2.68,2.68,0,0,0,0,.65l-3.12-3.59-.14-.19-.82-.93c-.08-.11-.05-.1-.23-.13l-.62-.08-11.21-1.47a2.85,2.85,0,0,0,.37.45l.63.76c.06.07.08.08.14.16l.37.45c.12.13.14.19.24.29l1.26,1.51c.13.13.16.19.27.3s.66.83.75.88c.1-.12.21-.35.31-.49a3.06,3.06,0,0,1,1.26-1.06c1.59-.71,3.49,0,4.93.76.34.18.67.39,1,.59a6.58,6.58,0,0,1,.9.67l-1.24-.64c-2.89-1.35-5.88-2-7.34,1.56-.29.71-.68,1.15-.07,1.73,2.48-2.45,8.55-1,8.55,2.53" transform="translate(-35.44 -49.55)"></path><path class="cls-3" d="M166,80.41h0a0,0,0,0,0,0,0v.38s0,0,0,0h.57v.59a1.23,1.23,0,0,1-.86.33,1.32,1.32,0,0,1-1.31-1.41,1.28,1.28,0,0,1,.4-.84,1.29,1.29,0,0,1,1.82,0h.05l.27-.27a0,0,0,0,0,0,0,1.76,1.76,0,0,0-2.44,0,1.72,1.72,0,0,0-.56,1.19,1.89,1.89,0,0,0,.12.74,1.81,1.81,0,0,0,.4.59,1.62,1.62,0,0,0,.6.4,1.65,1.65,0,0,0,.73.11,1.69,1.69,0,0,0,1.18-.54l0,0a0,0,0,0,0,0,0V80.44a0,0,0,0,0,0,0Zm-3.68-1.7h0a0,0,0,0,0,0,0v2.5l-1.89-2.51a0,0,0,0,0,0,0h-.16s0,0,0,0v3.45a0,0,0,0,0,0,0h.36s0,0,0,0V79.71l1.87,2.5,0,0h.17s0,0,0,0V78.74a0,0,0,0,0,0,0Zm-4,0h0a0,0,0,0,0,0,0V81a.78.78,0,0,1-.25.59.8.8,0,0,1-1.15,0,.82.82,0,0,1-.23-.58v-2.2a0,0,0,0,0,0,0h-.38s0,0,0,0v2.2a1.25,1.25,0,0,0,.38.91,1.22,1.22,0,0,0,.91.38,1.24,1.24,0,0,0,.87-.38,1.2,1.2,0,0,0,.37-.89V78.74a0,0,0,0,0,0,0Zm-5.5,0h0a0,0,0,0,0,0,0v.39a0,0,0,0,0,0,0h.93v3s0,0,0,0h.38s0,0,0,0v-3h.92a0,0,0,0,0,0,0v-.39a0,0,0,0,0,0,0Zm-1.64,0h0a0,0,0,0,0,0,0v3.45s0,0,0,0h.39s0,0,0,0V78.74a0,0,0,0,0,0,0Zm-3.54,0h0a0,0,0,0,0,0,0v3.45s0,0,0,0H150s0,0,0,0v-.38s0,0,0,0h-1.86V80.69h1.35a0,0,0,0,0,0,0v-.38a0,0,0,0,0,0,0h-1.35V79.16H150s0,0,0,0v-.39s0,0,0,0Zm-2.08,2h0a1,1,0,0,0,.49-1.66.94.94,0,0,0-.71-.3h-1.29s0,0,0,0v3.45s0,0,0,0h.38a0,0,0,0,0,0,0V80.7h.6l.83,1.5s0,0,0,0h.43s0,0,0,0a0,0,0,0,0,0,0Zm-1.1-.41h0v-1.1h.88a.53.53,0,0,1,.39.16.51.51,0,0,1,.16.39.49.49,0,0,1-.16.38.54.54,0,0,1-.39.17Zm-4-1.55h0a0,0,0,0,0,0,0v3.45s0,0,0,0h2.28s0,0,0,0v-.38a0,0,0,0,0,0,0H141V80.69h1.35s0,0,0,0v-.38s0,0,0,0H141V79.16h1.87a0,0,0,0,0,0,0v-.39a0,0,0,0,0,0,0Zm-1.87,1.6h0a.9.9,0,0,0,.27-.67.88.88,0,0,0-.28-.65.87.87,0,0,0-.66-.28h-1.27a0,0,0,0,0,0,0v3.45s0,0,0,0h1.36a1,1,0,0,0,.73-.3,1,1,0,0,0,.33-.71,1,1,0,0,0-.13-.52A1,1,0,0,0,138.67,80.31Zm-1.52-1.15H138a.47.47,0,0,1,.35.15.45.45,0,0,1,.15.35.49.49,0,0,1-.15.35.5.5,0,0,1-.35.14h-.85Zm0,2.62h0V80.6h1a.59.59,0,0,1,.42.17.6.6,0,0,1,0,.84.59.59,0,0,1-.42.17Zm-2.5-1.11h0a1,1,0,0,0,.54-.33,1,1,0,0,0,.24-.6,1,1,0,0,0-1-1h-1.29a0,0,0,0,0,0,0v3.45a0,0,0,0,0,0,0h.38a0,0,0,0,0,0,0V80.7h.61l.82,1.5s0,0,0,0h.43s0,0,0,0a0,0,0,0,0,0,0Zm-1.1-.41h0v-1.1h.88a.53.53,0,0,1,.39.16.51.51,0,0,1,.16.39.49.49,0,0,1-.16.38.54.54,0,0,1-.39.17ZM130,78.71h0a1.75,1.75,0,0,0-1.24,3,1.75,1.75,0,0,0,2.48-2.48A1.67,1.67,0,0,0,130,78.71Zm0,3.07h0a1.31,1.31,0,1,1,0-2.62,1.31,1.31,0,0,1,0,2.62Zm-3.81-.31h0l-.93-2.73a.05.05,0,0,0-.05,0h-.35l0,0a0,0,0,0,0,0,0L126,82.19s0,0,0,0h.31s0,0,0,0l1.18-3.41a.09.09,0,0,0,0,0,.05.05,0,0,0,0,0h-.35s0,0,0,0Zm-3.47-1.32h0a1.82,1.82,0,0,1-.44-.24.4.4,0,0,1-.15-.3c0-.29.19-.44.59-.44a1.07,1.07,0,0,1,.43.09l.13.08a.1.1,0,0,1,0,0s0,0,0,0,0,0,.05,0l.14-.13.13-.13s0,0,0,0l0,0-.07-.05a1.37,1.37,0,0,0-.2-.13,1.47,1.47,0,0,0-.65-.15A1.12,1.12,0,0,0,122,79a.79.79,0,0,0-.28.65.81.81,0,0,0,.31.64,2.27,2.27,0,0,0,.28.18l.14.07.07,0,.06,0,.11,0h0a1.86,1.86,0,0,1,.51.29.45.45,0,0,1,.18.35c0,.35-.23.53-.69.53a1.26,1.26,0,0,1-.51-.11l-.16-.1-.06,0,0,0a0,0,0,0,0,0,0l-.28.26a0,0,0,0,0,0,0l0,0,.08,0a1.09,1.09,0,0,0,.23.14,1.52,1.52,0,0,0,.73.18,1.2,1.2,0,0,0,.83-.27.89.89,0,0,0,.31-.71.91.91,0,0,0-.34-.7,2.22,2.22,0,0,0-.32-.21l-.15-.08-.08,0-.07,0Zm-3.31.26h0a0,0,0,0,0,0,0v.38s0,0,0,0H120v.59a1.31,1.31,0,0,1-2.17-1.08,1.32,1.32,0,0,1,1.26-1.21,1.29,1.29,0,0,1,1,.38h0l.28-.27a0,0,0,0,0,0,0,1.75,1.75,0,0,0-2.43,0,1.68,1.68,0,0,0-.56,1.19,1.89,1.89,0,0,0,.12.74,1.8,1.8,0,0,0,1,1,1.79,1.79,0,0,0,1.91-.43l0,0a0,0,0,0,0,0,0V80.44a0,0,0,0,0,0,0Zm-3.69-1.7h0a0,0,0,0,0,0,0v2.5l-1.88-2.51,0,0h-.16a0,0,0,0,0,0,0v3.45s0,0,0,0H114s0,0,0,0V79.71l1.87,2.5s0,0,0,0h.18s0,0,0,0V78.74a0,0,0,0,0,0,0Zm-4,0h0a0,0,0,0,0,0,0V81a.82.82,0,0,1-.25.59.8.8,0,0,1-.6.23.76.76,0,0,1-.56-.26.81.81,0,0,1-.22-.58v-2.2s0,0,0,0h-.38a0,0,0,0,0,0,0v2.2a1.22,1.22,0,0,0,.38.91,1.19,1.19,0,0,0,.9.38,1.27,1.27,0,0,0,.88-.38,1.23,1.23,0,0,0,.36-.89V78.74a0,0,0,0,0,0,0Zm-3.13.45h0a0,0,0,0,0,0,0v-.39a0,0,0,0,0,0,0h-2.13a0,0,0,0,0,0,0v3.45s0,0,0,0h.38s0,0,0,0v-1.5h1.33a0,0,0,0,0,0,0v-.39a0,0,0,0,0,0,0h-1.33V79.16Zm-4-.45h0s0,0,0,0V81a.78.78,0,0,1-.25.59.8.8,0,0,1-1.15,0,.82.82,0,0,1-.23-.58v-2.2a0,0,0,0,0,0,0h-.38a0,0,0,0,0,0,0v2.2a1.25,1.25,0,0,0,.37.91,1.22,1.22,0,0,0,.91.38,1.29,1.29,0,0,0,.88-.38A1.23,1.23,0,0,0,105,81V78.74a0,0,0,0,0,0,0Zm-.37-.35h0a.21.21,0,0,0,.07-.17.2.2,0,0,0-.07-.16.22.22,0,0,0-.17-.07.24.24,0,0,0-.23.23.22.22,0,0,0,.07.17.24.24,0,0,0,.16.07A.26.26,0,0,0,104.26,78.36Zm-.63,0h0a.26.26,0,0,0,.07-.17.24.24,0,0,0-.07-.16.22.22,0,0,0-.17-.07.24.24,0,0,0-.24.23.26.26,0,0,0,.07.17.28.28,0,0,0,.17.07A.26.26,0,0,0,103.63,78.36Zm-3.11,2.31h0a1,1,0,0,0,.54-.33,1,1,0,0,0,.24-.6,1,1,0,0,0-1-1H99a0,0,0,0,0,0,0v3.45a0,0,0,0,0,0,0h.38a0,0,0,0,0,0,0V80.7H100l.82,1.5s0,0,0,0h.43s0,0,0,0a0,0,0,0,0,0,0Zm-1.1-.41h0v-1.1h.88a.53.53,0,0,1,.39.16.51.51,0,0,1,.16.39.49.49,0,0,1-.16.38.54.54,0,0,1-.39.17Zm-4-1.55h0s0,0,0,0v3.45a0,0,0,0,0,0,0h.38s0,0,0,0V80.71h.86a1,1,0,0,0,.74-1.7,1,1,0,0,0-.72-.3Zm.41,1.55h0v-1.1h.88a.54.54,0,0,1,.4.16.56.56,0,0,1,0,.78.54.54,0,0,1-.4.16ZM87.7,78.71h0a0,0,0,0,0,0,0v3.45s0,0,0,0H90s0,0,0,0v-.38a0,0,0,0,0,0,0H88.12V80.69h1.35a0,0,0,0,0,0,0v-.38a0,0,0,0,0,0,0H88.12V79.16H90a0,0,0,0,0,0,0v-.39a0,0,0,0,0,0,0ZM85,81.78h0v-3s0,0,0,0h-.38a0,0,0,0,0,0,0v3.45s0,0,0,0h1.95s0,0,0,0v-.38a0,0,0,0,0,0,0ZM81.6,78.71h0s0,0,0,0l-1.43,3.45s0,0,0,0l0,0h.39s0,0,0,0l.56-1.36H82.4L83,82.21s0,0,0,0h.39l0,0v0L82,78.73s0,0,0,0Zm-.27,1.72h0l.45-1.07.44,1.07Zm-2.46-1.72h0a.09.09,0,0,0-.07,0l-1.2,1.34-1.19-1.34a.09.09,0,0,0-.07,0H76.2a0,0,0,0,0,0,0v3.45s0,0,0,0h.36s0,0,0,0v-2.6l1,1.11h0l1-1.11v2.6s0,0,0,0H79s0,0,0,0V78.74a0,0,0,0,0,0,0Zm-4.59,0h0a0,0,0,0,0,0,0v3.45s0,0,0,0h.38s0,0,0,0V78.74s0,0,0,0Zm-3.48,0h0a0,0,0,0,0,0,0v.39a0,0,0,0,0,0,0h.92v3s0,0,0,0h.38s0,0,0,0v-3h.92a0,0,0,0,0,0,0v-.39a0,0,0,0,0,0,0Zm-3.3,0h0a0,0,0,0,0,0,0v3.45s0,0,0,0h.38a0,0,0,0,0,0,0V80.71h.86a1,1,0,0,0,.71-.28,1,1,0,0,0,0-1.42.94.94,0,0,0-.71-.3Zm.42,1.55h0v-1.1h.88a.55.55,0,1,1,0,1.1Zm-3.53-1.55h0a1.75,1.75,0,0,0-1.24,3,1.75,1.75,0,0,0,2.48-2.48A1.67,1.67,0,0,0,64.39,78.71Zm0,3.07h0a1.31,1.31,0,1,1,0-2.62,1.31,1.31,0,0,1,0,2.62Zm-9.2-3.07h0a0,0,0,0,0,0,0v3.45s0,0,0,0h2.28s0,0,0,0v-.38a0,0,0,0,0,0,0H55.6V80.69H57a0,0,0,0,0,0,0v-.38a0,0,0,0,0,0,0H55.6V79.16h1.87a0,0,0,0,0,0,0v-.39a0,0,0,0,0,0,0Zm-1.9,0h0a0,0,0,0,0,0,0v2.5l-1.89-2.51a0,0,0,0,0,0,0h-.16s0,0,0,0v3.45a0,0,0,0,0,0,0h.36s0,0,0,0V79.71l1.87,2.5,0,0h.17s0,0,0,0V78.74a0,0,0,0,0,0,0Zm-4,0h0a0,0,0,0,0,0,0v3.45s0,0,0,0h.39s0,0,0,0V78.74a0,0,0,0,0,0,0Zm-3.53,0h0s0,0,0,0v3.45a0,0,0,0,0,0,0H48s0,0,0,0v-.38a0,0,0,0,0,0,0H46.14V80.69h1.35a0,0,0,0,0,0,0v-.38a0,0,0,0,0,0,0H46.14V79.16H48a0,0,0,0,0,0,0v-.39a0,0,0,0,0,0,0Zm-4.25,0h0a0,0,0,0,0,0,0v3.45s0,0,0,0h1.09a1.74,1.74,0,0,0,1.25-.51,1.67,1.67,0,0,0,.54-1.22,1.76,1.76,0,0,0-1.76-1.79Zm.42,3.07V79.15h.7a1.32,1.32,0,0,1,0,2.63Z" transform="translate(-35.44 -49.55)"></path></svg>